<mxfile host="app.diagrams.net">
  <diagram name="Git Flow" id="t0HlyzBZ61oygLq_3OP3">
    <mxGraphModel dx="1422" dy="739" grid="1" gridSize="10" guides="1" tooltips="1" connect="1" arrows="1" fold="1" page="1" pageScale="1" pageWidth="827" pageHeight="1169">
      <root>
        <mxCell id="0" />
        <mxCell id="1" parent="0" />
        <!-- main -->
        <mxCell id="main" value="main" style="rounded=0;html=1;strokeColor=#0000FF;fillColor=#D0E1FF;" vertex="1" parent="1">
          <mxGeometry x="280" y="40" width="100" height="40" as="geometry" />
        </mxCell>
        <!-- dev -->
        <mxCell id="dev" value="dev" style="rounded=0;html=1;strokeColor=#009900;fillColor=#CCFFCC;" vertex="1" parent="1">
          <mxGeometry x="280" y="120" width="100" height="40" as="geometry" />
        </mxCell>
        <!-- Arrow from main to dev -->
        <mxCell style="endArrow=block;strokeColor=#000000;" edge="1" parent="1" source="main" target="dev">
          <mxGeometry relative="1" as="geometry" />
        </mxCell>

        <!-- feature branches -->
        <!-- Generate 6 feature branches -->
        <!-- feature/1 to feature/6 -->
        <!-- Each connected to dev and then merging back -->
        <!-- Positioning horizontally -->

        <!-- Feature 1 -->
        <mxCell id="f1" value="feature/1" style="rounded=0;html=1;strokeColor=#990000;fillColor=#FFCCCC;" vertex="1" parent="1">
          <mxGeometry x="60" y="200" width="100" height="40" as="geometry" />
        </mxCell>
        <mxCell style="endArrow=block;" edge="1" parent="1" source="dev" target="f1">
          <mxGeometry relative="1" as="geometry" />
        </mxCell>
        <mxCell style="endArrow=block;" edge="1" parent="1" source="f1" target="dev">
          <mxGeometry relative="1" as="geometry" />
        </mxCell>

        <!-- Feature 2 -->
        <mxCell id="f2" value="feature/2" style="rounded=0;html=1;strokeColor=#990000;fillColor=#FFCCCC;" vertex="1" parent="1">
          <mxGeometry x="180" y="200" width="100" height="40" as="geometry" />
        </mxCell>
        <mxCell style="endArrow=block;" edge="1" parent="1" source="dev" target="f2">
          <mxGeometry relative="1" as="geometry" />
        </mxCell>
        <mxCell style="endArrow=block;" edge="1" parent="1" source="f2" target="dev">
          <mxGeometry relative="1" as="geometry" />
        </mxCell>

        <!-- Feature 3 -->
        <mxCell id="f3" value="feature/3" style="rounded=0;html=1;strokeColor=#990000;fillColor=#FFCCCC;" vertex="1" parent="1">
          <mxGeometry x="300" y="200" width="100" height="40" as="geometry" />
        </mxCell>
        <mxCell style="endArrow=block;" edge="1" parent="1" source="dev" target="f3">
          <mxGeometry relative="1" as="geometry" />
        </mxCell>
        <mxCell style="endArrow=block;" edge="1" parent="1" source="f3" target="dev">
          <mxGeometry relative="1" as="geometry" />
        </mxCell>

        <!-- Feature 4 -->
        <mxCell id="f4" value="feature/4" style="rounded=0;html=1;strokeColor=#990000;fillColor=#FFCCCC;" vertex="1" parent="1">
          <mxGeometry x="420" y="200" width="100" height="40" as="geometry" />
        </mxCell>
        <mxCell style="endArrow=block;" edge="1" parent="1" source="dev" target="f4">
          <mxGeometry relative="1" as="geometry" />
        </mxCell>
        <mxCell style="endArrow=block;" edge="1" parent="1" source="f4" target="dev">
          <mxGeometry relative="1" as="geometry" />
        </mxCell>

        <!-- Feature 5 -->
        <mxCell id="f5" value="feature/5" style="rounded=0;html=1;strokeColor=#990000;fillColor=#FFCCCC;" vertex="1" parent="1">
          <mxGeometry x="540" y="200" width="100" height="40" as="geometry" />
        </mxCell>
        <mxCell style="endArrow=block;" edge="1" parent="1" source="dev" target="f5">
          <mxGeometry relative="1" as="geometry" />
        </mxCell>
        <mxCell style="endArrow=block;" edge="1" parent="1" source="f5" target="dev">
          <mxGeometry relative="1" as="geometry" />
        </mxCell>

        <!-- Feature 6 -->
        <mxCell id="f6" value="feature/6" style="rounded=0;html=1;strokeColor=#990000;fillColor=#FFCCCC;" vertex="1" parent="1">
          <mxGeometry x="660" y="200" width="100" height="40" as="geometry" />
        </mxCell>
        <mxCell style="endArrow=block;" edge="1" parent="1" source="dev" target="f6">
          <mxGeometry relative="1" as="geometry" />
        </mxCell>
        <mxCell style="endArrow=block;" edge="1" parent="1" source="f6" target="dev">
          <mxGeometry relative="1" as="geometry" />
        </mxCell>

        <!-- dev to main merge -->
        <mxCell style="endArrow=block;strokeColor=#000;" edge="1" parent="1" source="dev" target="main">
          <mxGeometry relative="1" as="geometry" />
        </mxCell>
      </root>
    </mxGraphModel>
  </diagram>
</mxfile>
